<?xml version="1.0" encoding="utf-8"?>
<!-- Generator: Adobe Illustrator 17.0.0, SVG Export Plug-In . SVG Version: 6.00 Build 0)  -->
<!DOCTYPE svg PUBLIC "-//W3C//DTD SVG 1.1//EN" "http://www.w3.org/Graphics/SVG/1.1/DTD/svg11.dtd">
<svg version="1.1" id="Ebene_1" xmlns="http://www.w3.org/2000/svg" xmlns:xlink="http://www.w3.org/1999/xlink" x="0px" y="0px"
	 width="434px" height="461px" viewBox="110.5 12.5 434 461" enable-background="new 110.5 12.5 434 461" xml:space="preserve">
<g>
	<path fill="#80BD01" d="M329.013,469.402c-6.211,0-12.27-1.515-16.966-4.696l-55.443-32.418c-7.726-4.696-4.696-6.211-1.515-7.726
		c10.755-3.03,13.936-4.696,24.692-10.755c1.515,0,3.03,0,4.696,0l43.173,24.692c1.515,1.515,3.03,1.515,4.696,0l166.329-95.586
		c1.515-1.515,3.03-3.03,3.03-4.696V149.013c0-1.515-1.515-3.03-3.03-4.696l-166.33-95.586c-1.515-1.515-3.03-1.515-4.696,0
		L161.32,144.317c-1.515,1.515-3.03,3.03-3.03,4.696v191.021c0,1.515,1.515,3.03,3.03,4.696l44.688,26.207
		C230.7,383.207,246,369.422,246,353.971V164.465c0-3.03,1.515-4.696,4.696-4.696h21.511c3.03,0,4.696,1.515,4.696,4.696v189.506
		c0,32.418-18.481,52.413-49.232,52.413c-9.24,0-16.966,0-38.477-10.755l-43.173-24.692c-10.755-6.211-16.966-18.481-16.966-30.751
		V149.013c0-12.27,6.211-24.692,16.966-30.751L312.35,22.676c10.755-6.211,24.692-6.211,35.447,0l166.329,95.586
		c10.755,6.211,16.966,18.481,16.966,30.751v191.021c0,12.27-6.211,24.692-16.966,30.751l-166.329,95.586
		C339.768,467.887,335.224,469.402,329.013,469.402z"/>
	<path fill="#80BD01" d="M379.911,338.52c-72.409,0-87.861-33.932-87.861-61.654c0-3.03,1.515-4.696,4.696-4.696h21.511
		c3.03,0,4.696,1.515,4.696,4.696c3.03,21.511,12.27,32.418,56.958,32.418c35.447,0,49.232-7.726,49.232-26.207
		c0-10.755-4.696-18.481-58.473-24.692c-44.688-4.696-73.924-13.937-73.924-50.899c0-33.932,27.722-53.928,75.439-53.928
		c52.413,0,80.135,18.481,83.165,58.473c0,1.515,0,3.03-1.515,3.03c-1.515,1.515-1.515,1.515-3.03,1.515h-21.511
		c-1.515,0-4.696-1.515-4.696-3.03c-4.696-23.177-16.966-30.751-52.413-30.751c-38.477,0-43.173,13.937-43.173,23.177
		c0,12.27,4.696,15.451,56.958,23.177c50.899,6.211,75.439,16.966,75.439,52.413C461.561,317.009,432.325,338.52,379.911,338.52z"/>
</g>
</svg>
